<svg xmlns="http://www.w3.org/2000/svg" width="60" height="60"><path d="M50 60H4c-2.21 0-4-1.79-4-4V10c0-2.21 1.79-4 4-4h43c.55 0 1 .45 1 1s-.45 1-1 1H4a2 2 0 0 0-2 2v46c0 1.1.9 2 2 2h46c1.1 0 2-.9 2-2V22H7c-.55 0-1-.45-1-1s.45-1 1-1h45V7c0-.55.45-1 1-1s1 .45 1 1v49c0 2.21-1.79 4-4 4z" fill="#2F3137"/><path d="M59 54c-.55 0-1-.45-1-1V4a2 2 0 0 0-2-2H7c-.55 0-1-.45-1-1s.45-1 1-1h49c2.21 0 4 1.79 4 4v49c0 .55-.45 1-1 1zM8 12c1.1 0 2 .9 2 2s-.9 2-2 2-2-.9-2-2 .9-2 2-2zm8 0c1.1 0 2 .9 2 2s-.9 2-2 2-2-.9-2-2 .9-2 2-2zm8 0c1.1 0 2 .9 2 2s-.9 2-2 2-2-.9-2-2 .9-2 2-2z" fill="#25E5E5"/></svg>