<svg xmlns="http://www.w3.org/2000/svg" width="60" height="43"><path d="M7 6h26c.55 0 1 .45 1 1s-.45 1-1 1H7c-.55 0-1-.45-1-1s.45-1 1-1zm38 37H20c-2.21 0-4-1.79-4-4 0-.73.21-1.41.55-2H16c-2.21 0-4-1.79-4-4H4c-2.21 0-4-1.79-4-4V1c0-.55.45-1 1-1s1 .45 1 1v28c0 1.1.9 2 2 2h32c1.1 0 2-.9 2-2 0-.55.45-1 1-1s1 .45 1 1c0 2.21-1.79 4-4 4H14c0 1.1.9 2 2 2h16v2H20a2 2 0 1 0 0 4h25c7.18 0 13-5.82 13-13s-5.82-13-13-13H30c-1.1 0-2 .9-2 2s.9 2 2 2h10c0 3.87 3.13 7 7 7 .55 0 1 .45 1 1s-.45 1-1 1c-4.28 0-7.86-2.99-8.77-7H30c-2.21 0-4-1.79-4-4s1.79-4 4-4h8V4a2 2 0 0 0-2-2H7c-.55 0-1-.45-1-1s.45-1 1-1h29c2.21 0 4 1.79 4 4v9h5c8.28 0 15 6.72 15 15 0 8.28-6.72 15-15 15z" fill="#2F3137"/><path d="M33 27H7c-.55 0-1-.45-1-1s.45-1 1-1h26c.55 0 1 .45 1 1s-.45 1-1 1zM21 14H7c-.55 0-1-.45-1-1s.45-1 1-1h14c.55 0 1 .45 1 1s-.45 1-1 1z" fill="#25E5E5"/></svg>