<svg xmlns="http://www.w3.org/2000/svg" width="60" height="45"><path d="M59.96 6.18c0 .02.01.04 0 .07l-6.99 26.02c-.01.03-.03.06-.04.09-.01.03-.03.05-.04.08-.05.09-.1.18-.17.25-.02.02-.03.03-.05.04-.08.07-.16.13-.26.18-.02.01-.04.01-.06.02-.1.04-.21.06-.32.06-.01 0-.02.01-.03.01H19.03c-.1 0-.2-.02-.3-.06a.492.492 0 0 1-.17-.06h-.01A.998.998 0 0 1 18 32c0-.02.01-.04.01-.06L10.21 2H1c-.55 0-1-.45-1-1s.45-1 1-1h9.97a1.047 1.047 0 0 1 .47.12h.01c.32.17.55.49.55.88 0 .02-.01.04-.01.06L19.79 31h31.45l6.45-24H19c-.55 0-1-.45-1-1s.45-1 1-1h40c.02 0 .04.01.07.01.06.01.12 0 .18.01.04.01.06.04.09.05.05.02.09.04.13.06.07.04.13.08.19.13.04.04.08.08.11.13.04.05.08.1.11.16s.05.13.07.2c.01.05.03.1.03.16 0 .03.02.06.02.09 0 .06-.02.12-.04.18zM23 37c2.21 0 4 1.79 4 4s-1.79 4-4 4-4-1.79-4-4 1.79-4 4-4zm0 6c1.1 0 2-.9 2-2s-.9-2-2-2-2 .9-2 2 .9 2 2 2zm9-3h8c.55 0 1 .45 1 1s-.45 1-1 1h-8c-.55 0-1-.45-1-1s.45-1 1-1zm17-3c2.21 0 4 1.79 4 4s-1.79 4-4 4-4-1.79-4-4 1.79-4 4-4zm0 6c1.1 0 2-.9 2-2s-.9-2-2-2-2 .9-2 2 .9 2 2 2z" fill="#2F3137"/><path d="M43 17h-3v4h3c.55 0 1 .45 1 1s-.45 1-1 1h-3v3c0 .55-.45 1-1 1s-1-.45-1-1v-3h-4v3c0 .55-.45 1-1 1s-1-.45-1-1v-3h-3c-.55 0-1-.45-1-1s.45-1 1-1h3v-4h-3c-.55 0-1-.45-1-1s.45-1 1-1h3v-3c0-.55.45-1 1-1s1 .45 1 1v3h4v-3c0-.55.45-1 1-1s1 .45 1 1v3h3c.55 0 1 .45 1 1s-.45 1-1 1zm-9 0v4h4v-4h-4z" fill="#25E5E5"/></svg>