<svg xmlns="http://www.w3.org/2000/svg" width="56" height="56"><path d="M55.37 24c0 .55-.44 1-1 1H32c-.55 0-1-.45-1-1V1.62c0-.55.45-1 1-1s1 .45 1 1V23h20.09A28.052 28.052 0 0 0 38 4.72s-.38-.16-.55-.31a1 1 0 0 1-.45-.82c0-.55.45-1 1-1 .18 0 .34.06.48.15.01 0 .01-.01.01-.01C47.07 6.67 53.47 14.52 55.4 24h-.03z" fill="#25E5E5"/><path d="M51 31H26.39L14.68 42.72c-.39.38-1.01.38-1.4 0-.38-.39-.38-1.01 0-1.4L25 29.61V6.06c-.01 0-.03-.01-.04-.01C12.19 6.6 2 17.1 2 30c0 13.25 10.75 24 24 24 11.18 0 20.53-7.66 23.2-18 0 0 .02-.13.07-.24.1-.43.48-.76.95-.76.55 0 1 .45 1 1 0 .1 0 .2-.03.31C48.37 47.62 38.18 56 26 56 11.64 56 0 44.36 0 30 0 15.98 11.11 4.58 25 4.05v.01c.17 0 .32.05.45.12.16-.1.34-.18.55-.18.55 0 1 .45 1 1v24h24c.55 0 1 .45 1 1s-.45 1-1 1z" fill="#2F3137"/></svg>