<svg xmlns="http://www.w3.org/2000/svg" width="60" height="60"><path d="M50 46H21.39L7.75 59.64c-.18.22-.45.36-.75.36a.98.98 0 0 1-.92-.63.917.917 0 0 1-.08-.46V44h2v12.54l12.26-12.26c.18-.18.41-.27.65-.28H50c1.1 0 2-.9 2-2V10c0-1.1-.9-2-2-2H4c-1.1 0-2 .9-2 2v35c0 .55-.45 1-1 1s-1-.45-1-1V10c0-2.21 1.79-4 4-4h46c2.21 0 4 1.79 4 4v32c0 2.21-1.79 4-4 4z" fill="#2F3137"/><path d="M59 42c-.55 0-1-.45-1-1V4a2 2 0 0 0-2-2H7c-.55 0-1-.45-1-1s.45-1 1-1h49c2.21 0 4 1.79 4 4v37c0 .55-.45 1-1 1zM17 23c1.66 0 3 1.34 3 3s-1.34 3-3 3-3-1.34-3-3 1.34-3 3-3zm0 4c.55 0 1-.45 1-1s-.45-1-1-1-1 .45-1 1 .45 1 1 1zm10-4c1.66 0 3 1.34 3 3s-1.34 3-3 3-3-1.34-3-3 1.34-3 3-3zm0 4c.55 0 1-.45 1-1s-.45-1-1-1-1 .45-1 1 .45 1 1 1zm10-4c1.66 0 3 1.34 3 3s-1.34 3-3 3-3-1.34-3-3 1.34-3 3-3zm0 4c.55 0 1-.45 1-1s-.45-1-1-1-1 .45-1 1 .45 1 1 1z" fill="#25E5E5"/></svg>