<svg xmlns="http://www.w3.org/2000/svg" width="120" height="60"><path d="M118 31.28s-.96 2.67-2.63 4.28c-.92.89-5.1 1.67-7.66 1.89l-1.11 3.5c1.67-2.54 5.99-2.32 5.84 0-.24 3.69-2.73 4.61-4.17 5.31-1.61.78-2.45.62-3.01.69.1.02 1.79.05 2.39.46 1.68 1.15.72 2.54 1.68 2.54.48 0 .72-.69.88-1.16.32-.92 1.03-.92 1.03-.92s1.13-.15 1.47-.08c.94.17.49.82.33 1.29-.07.2-.53 1.09-.74 1.35-.82 1.02-2.51 1.16-3.55 1.13-1.58-.04-2.29-.92-2.29-2.3 0-1.64-1.92-1.62-1.92-1.62l-1.18 3.23s-.15.72-.63.72c-.66 0-.99-.04-2.18-.04-.72 0-.54-.68-.54-.68l1.31-3.64s-2.38 4.36-4.94 4.33c-.79-.01-1.71-.02-2.39-.87-.72-.91-.49-2.13-.09-3.3.65-1.9 1.51-4 1.3-3.9-1.51.73-2.54.08-2.74-.03-.68.92-1.34 1.35-2.29 1.73-1.54 7.29-7.47 7.17-9.28 5.22-1.08-1.18-1.25-2.97-.72-4.98-.26.2-.77.39-1.25.39-.48.01-.93-.16-.98-.17-.26 1.03-.66 2.36-1.17 3.14-2.16 3.33-5.03 3-6.19 2.08-.67-.53-1.19-1.13-1.66-2.05-.24.46-.77 1.35-1.92 2.08-1.39.88-4.63 1.28-6.62-1.06-1.54-1.82-2.1-4.67-.99-8.62.95-3.42 2.91-5.62 3.88-6.53 2.26-2.12 5.13-3.1 7.24-3 4.12.19 5.08 2.27 5.16 3.78.45-.32.99-.65 1.63-.96 3.35-1.61 6.63-1.02 11.01-.46 6.06.78 10.82.75 16.7.02.21-.59.41-1.13.41-1.13s1.61-5.16 2.48-7.9c.44-1.42.9-2.21 1.58-2.63 1.08-.67 2.84-.51 3.48.38.52.71 1.14 2.25-.61 5.43-.8 1.45-2.34 4.13-2.86 4.72l-.38.54c6.87-1.11 8.89-2.2 8.89-2.2zM92.48 42.2c.49-.31.84-1.12.67-1.58-.21-.58-.96-.58-1.2-.11-.55 1.08.56 1.66.53 1.69zm-9.25 6.13c.48 1.85 3.83 1.85 5.09-2.54.01-.07.04-.22.06-.29-.04 0-3.23-.17-2.99-1.78.1-.72 1.43-.46 2.63-.46.29 0 .55-.01.79-.01.04-.73-.12-1.42-.79-2.07-.72-.69-2.69-.46-4.07 2.77-.77 1.79-.99 3.36-.72 4.38zm-13.36-3.89s1.49-1.25 1.44-3.46c-.02-.82-.84-1.35-1.44-.24-.67 1.25 0 3.7 0 3.7zm18.44-7.85c-6.95-1.34-9.8-1.17-11.97.92-2.16 2.08-2.77.93-2.7.63.15-.68.27-1.62.2-2.18-.15-1.24-.91-2.1-2.61-2.14-2.16-.05-4.6 1.08-6.2 4.36-1.59 3.28-2.32 7.78-1.14 9.26 1.48 1.87 4.22.1 4.27-1.02-.18-.51-1.96-5.91.97-7.48 1.45-.77 5.77.42.98 7.11-.24 1.62 3.35 5.31 5.7 1.13.48-.86.61-1.92.67-2.9-.84-1.12-1.37-2.46-.93-3.53.36-.88 1.35-.97 1.74-.83.99.35 1.19 1.62 1 3.84.21.32.51.39.87.42 1.15.11 1.54-.48 1.66-.6 1.25-2.72 3.77-4.25 5.69-4.24 3.02.02 3.77 1.91 3.86 3.79.77-.05 1.13-.19 1.27-.34-.46-.41-.72-1.18-.78-1.47-.16-.9.2-1.51.76-1.79.52-.26 1.55-.38 2.11.51.74 1.18-.52 2.6-.52 2.6.2.19.79.35 1.51-.31.72-.64 1.52-1.87 1.68-2.07.72-.93 3.33-.64 3.33-.64s-.94 2.9-1.56 4.79c-.39 1.21-1.5 4.04-1.19 4.62.56 1.04 2.25-.79 2.25-.79 1.7-1.63 3.41-5.96 3.41-5.96s.79-2.62 1.45-4.76c-4.65.03-10.73.04-15.78-.93zm16.63 9.2s2.76.42 4.29-2.53c1.92-3.7-2.15-2.77-3.35-.23l-.94 2.76zm5.63-15.85c1.59-2.43 2.19-5.02 1.91-5.77s-.9-.05-1.16.77c-.6 1.88-2.04 6.41-2.58 7.98.22-.33 1.26-2.11 1.83-2.98zM57.7 35.53c-.66.65-3.14 1.29-5.68 1.68-1.47 4.39-2.28 6.96-2.53 7.78-.42 1.39-1.84 4.87-.17 4.88.95.01 1.11-1.63 1.44-1.85.72-.46 2.51-.69 2.75 0 .08.25-.36 1.16-.36 1.16s-.95 2.54-4.72 2.51c-.55 0-4.31-.42-2.63-5.34.24-.72 1.34-4.58 2.61-8.76-.28.01-.55.02-.79.02h-3.55c.3 2.66.45 3.15.4 6.06-.03 1.54-.38 9.46-2.21 12.79-1.55 2.81-3.04 3.27-4.03 3.48-.94.2-2.93-.02-3.68-1.42-.94-1.75.06-4.94.06-4.94l2.15-6.44c-1.15 2.2-2.86 4.49-4.95 4.35-2.16-.15-2.21-1.8-2.21-1.8s-1.25 1.9-3.74 1.8c-3.15-.14-3.38-2.28-3.38-2.28s-2.31 2.33-4.18 2.28c-.8-.03-1.72-.02-2.4-.88-.71-.9-.48-2.12-.09-3.29.65-1.9.98-2.92 1.24-3.88-.1.1-.85 1.35-2.44 1.49-.35.03-.79.04-1.09 0-.76 3.26-2.27 4.98-3.39 5.72-2.51 1.64-6.57 1.41-8.55-.93-1.55-1.82-2.11-4.67-1-8.62.96-3.42 2.94-5.6 3.88-6.53 2.48-2.43 4.85-3.02 7.27-2.73 1.55.19 4.33 1.27 4.6 3.9.5-.37 1.11-.77 1.87-1.13 3.35-1.62 6.87-.79 11.25-.23 4.22.54 7.72.61 11.43.34.21-.61.42-1.16.42-1.16s1.61-5.17 2.48-7.9c.45-1.42.9-2.22 1.58-2.64 1.09-.67 2.84-.5 3.49.38.51.71.98 2.65-.62 5.43-.83 1.44-2.33 4.13-2.86 4.73l-.39.75c1.37-.18 2.81-.38 4.34-.62.11-.02.2-.03.3-.05 1.2-3.76 2.35-7.07 2.93-7.77.48-.58 1.85-1.31 2.76-1.75.5-.25.72.13.72.13L53.35 33c4.7-.88 6.99-1.62 6.99-1.62s-.96 2.54-2.64 4.15zM25.43 47.86c.12 1.66 1.63 1.75 2.53 1.18.56-.35 1.33-1.34 1.73-2.67.49-1.67.85-3.18.75-3.89 0 0 .25-1.47-1.1-1.64-.98-.13-1.9.89-2.79 2.86-.92 2.03-1.18 3.4-1.12 4.16zM12.8 43.65s.53-1.59-.36-2.5c-.37-.37-1.45-.35-1.26.79.24 1.39 1.38 1.71 1.62 1.71zm17.61-6.73c-6.6-.87-11.51-1.4-13.41.69-1.25 1.38-2.07 1.12-2.35.84-.09-.1-.04-.31-.04-.31l.08-.34c.48-2.34-1.41-3.75-3.46-3.29-1.73.38-3.28 1.45-4.87 4.74-1.6 3.28-1.87 7.16-.82 8.64 1.34 1.91 3.62 2.05 5.23.1.96-1.15 1.47-2.27 1.67-3.2-.77-.17-1.9-1.12-2.2-2.1-.29-.97-.14-1.94.58-2.4.57-.36 2.12-.57 2.76.88.56 1.27.1 2.6.1 2.6.16.12 1.23.25 1.99-.38 1.03-.86 1.76-3 2.87-3.61.67-.37 3.11-.23 3.11-.23s-1.06 3.48-1.68 5.37c-.39 1.21-1.31 3.57-.84 4.05 1.1 1.11 3.01-.95 3.01-.95s-.07-3.69 3.09-6.65c1.31-1.23 2.67-1.91 4.35-1.82 1.67.09 1.66 1.43 1.66 1.43s.65-.98.96-1.2c.68-.47 2.87-.23 2.87-.23s-1.92 6-2.26 7.01c-.21.6-.85 2.67.23 2.66 1.98-.02 3.67-2.78 4.75-5.13l2.17-6.49c-3.68-.04-5.74-.18-9.55-.68zM43.1 38.4l-5.33 16.35s-.41 1.36-.19 1.96c.17.46.49.66 1.16.4.74-.29 1.71-.96 2.9-3.83 1.15-2.81 2.27-9.41 1.46-14.88zm3.35-7.85c1.6-2.42 2.2-5.02 1.92-5.77-.28-.75-.91-.04-1.17.78-.6 1.88-2.04 6.4-2.58 7.97.22-.33 1.26-2.11 1.83-2.98z" fill="#FFF"/><text transform="translate(61 8)" opacity=".2" font-size="11" font-family="Montserrat-Light" fill="#fff"><tspan x="0.00 9.83 17.67 26.09 32.60 36.04 42.93" fill="#FFF">MADE BY</tspan></text></svg>