<svg xmlns="http://www.w3.org/2000/svg" width="60" height="60"><path d="M54 30c0 .55-.45 1-1 1s-1-.45-1-1c0-12.15-9.85-22-22-22S8 17.85 8 30c0 .55-.45 1-1 1s-1-.45-1-1C6 16.74 16.75 6 30 6s24 10.74 24 24zM30 60C13.43 60 0 46.53 0 29.92 0 14.33 11.84 1.5 27-.01V0a1.005 1.005 0 0 1 0 2.01C12.95 3.52 2 15.43 2 29.92 2 34.25 3.01 38.34 4.75 42H49c.55 0 1 .45 1 1s-.45 1-1 1H5.8c4.85 8.36 13.86 13.99 24.2 13.99 7.61 0 14.5-3.05 19.55-7.99H16c-.55 0-1-.45-1-1s.45-1 1-1h35.41C55.51 43.11 58 36.81 58 29.92c0-14.49-10.95-26.4-25-27.91A1.005 1.005 0 0 1 33 0v-.01C48.16 1.5 60 14.33 60 29.92 60 46.53 46.57 60 30 60z" fill="#2F3137"/><path d="M30 14c.55 0 1 .45 1 1v22c0 .55-.45 1-1 1s-1-.45-1-1V15c0-.55.45-1 1-1z" fill="#25E5E5"/></svg>