<svg xmlns="http://www.w3.org/2000/svg" width="60" height="60"><path d="M40.71 19.29c.41.41.41 1.07 0 1.48L22.8 38.68c-.41.41-1.07.41-1.48 0-.41-.41-.41-1.07 0-1.48l17.91-17.91c.41-.41 1.07-.41 1.48 0z" fill="#25E5E5"/><path d="M59 60H7c-.55 0-1-.45-1-1s.45-1 1-1h51V29c0-.55.45-1 1-1s1 .45 1 1v30c0 .55-.45 1-1 1zM22.53 48.8c-.6.59-1.34.96-2.11 1.1-.13.06-.27.1-.42.1h-9a1.006 1.006 0 0 1-.92-.61c-.05-.12-.08-.25-.08-.39v-9c0-.08.03-.15.04-.22.11-.85.47-1.68 1.13-2.34L47.44 1.17a4.014 4.014 0 0 1 5.68 0l5.68 5.68a4.032 4.032 0 0 1 0 5.68L22.53 48.8zM12 48h7.52L12 40.48V48zM57.41 8.24l-5.69-5.69c-.78-.78-2.06-.78-2.84 0l-6.5 6.5c.14.05.27.13.39.24l3.91 3.91c.41.41.41 1.07 0 1.48-.41.41-1.07.41-1.48 0l-3.91-3.91c-.11-.12-.19-.25-.24-.39l-28.1 28.1 8.54 8.53 35.92-35.92c.79-.79.79-2.06 0-2.85zM31 2H2v57c0 .55-.45 1-1 1s-1-.45-1-1V1c0-.55.45-1 1-1h30c.55 0 1 .45 1 1s-.45 1-1 1z" fill="#2F3137"/></svg>