<svg xmlns="http://www.w3.org/2000/svg" width="38" height="60"><path d="M34 60H4c-2.21 0-4-1.79-4-4V4c0-2.21 1.79-4 4-4h30c2.21 0 4 1.79 4 4v52c0 2.21-1.79 4-4 4zm0-58H4a2 2 0 0 0-2 2v44h29c.55 0 1 .45 1 1s-.45 1-1 1H2v6c0 1.1.9 2 2 2h30c1.1 0 2-.9 2-2V12H7c-.55 0-1-.45-1-1s.45-1 1-1h29V4a2 2 0 0 0-2-2z" fill="#2F3137"/><path d="M22 7h-6c-.55 0-1-.45-1-1s.45-1 1-1h6c.55 0 1 .45 1 1s-.45 1-1 1zM11.72 17.64l-4.08 4.07c-.37.38-.98.38-1.36 0a.96.96 0 0 1 0-1.35l4.08-4.08c.37-.37.98-.37 1.36 0 .37.38.37.99 0 1.36zm-5.44 8.72l10.08-10.08c.37-.37.98-.37 1.36 0 .37.38.37.99 0 1.36L7.64 27.71c-.37.38-.98.38-1.36 0a.96.96 0 0 1 0-1.35zM19 52c1.1 0 2 .9 2 2s-.9 2-2 2-2-.9-2-2 .9-2 2-2z" fill="#25E5E5"/></svg>