<svg xmlns="http://www.w3.org/2000/svg" width="60" height="60"><path d="M59 60c-.55 0-1-.45-1-1V16a2 2 0 0 0-2-2H4a2 2 0 0 0-2 2v40c0 1.1.9 2 2 2h49c.55 0 1 .45 1 1s-.45 1-1 1H4c-2.21 0-4-1.79-4-4V16c0-2.21 1.79-4 4-4h34V4a2 2 0 0 0-2-2H24a2 2 0 0 0-2 2v3c0 .55-.45 1-1 1s-1-.45-1-1V4c0-2.21 1.79-4 4-4h12c2.21 0 4 1.79 4 4v8h16c2.21 0 4 1.79 4 4v43c0 .55-.45 1-1 1z" fill="#2F3137"/><path d="M49 54c-.55 0-1-.45-1-1V19c0-.55.45-1 1-1s1 .45 1 1v34c0 .55-.45 1-1 1zm-6 0c-.55 0-1-.45-1-1V19c0-.55.45-1 1-1s1 .45 1 1v34c0 .55-.45 1-1 1zm-26 0c-.55 0-1-.45-1-1V19c0-.55.45-1 1-1s1 .45 1 1v34c0 .55-.45 1-1 1zm-6 0c-.55 0-1-.45-1-1V19c0-.55.45-1 1-1s1 .45 1 1v34c0 .55-.45 1-1 1z" fill="#25E5E5"/></svg>