<svg xmlns="http://www.w3.org/2000/svg" width="60" height="60"><path d="M46 50c-.55 0-1-.45-1-1V35c0-.55.45-1 1-1s1 .45 1 1v14c0 .55-.45 1-1 1zm-16 0c-.55 0-1-.45-1-1V23c0-.55.45-1 1-1s1 .45 1 1v26c0 .55-.45 1-1 1zm-16 0c-.55 0-1-.45-1-1v-6c0-.55.45-1 1-1s1 .45 1 1v6c0 .55-.45 1-1 1z" fill="#25E5E5"/><path d="M13 25V11c0-.55.45-1 1-1s1 .45 1 1v14c0 .55-.45 1-1 1s-1-.45-1-1zm5 9c0 2.21-1.79 4-4 4s-4-1.79-4-4 1.79-4 4-4 4 1.79 4 4zm-4-2c-1.1 0-2 .9-2 2s.9 2 2 2 2-.9 2-2-.9-2-2-2zm12-18c0-2.21 1.79-4 4-4s4 1.79 4 4-1.79 4-4 4-4-1.79-4-4zm6 0c0-1.1-.9-2-2-2s-2 .9-2 2 .9 2 2 2 2-.9 2-2zm13 3v-6c0-.55.45-1 1-1s1 .45 1 1v6c0 .55-.45 1-1 1s-1-.45-1-1zm5 9c0 2.21-1.79 4-4 4s-4-1.79-4-4 1.79-4 4-4 4 1.79 4 4zm-4-2c-1.1 0-2 .9-2 2s.9 2 2 2 2-.9 2-2-.9-2-2-2zm13 36c-.55 0-1-.45-1-1V4a2 2 0 0 0-2-2H4a2 2 0 0 0-2 2v52c0 1.1.9 2 2 2h49c.55 0 1 .45 1 1s-.45 1-1 1H4c-2.21 0-4-1.79-4-4V4c0-2.21 1.79-4 4-4h52c2.21 0 4 1.79 4 4v55c0 .55-.45 1-1 1z" fill="#2F3137"/></svg>